<?xml version="1.0" encoding="UTF-8" standalone="no"?>
<!-- Created with Inkscape (http://www.inkscape.org/) -->

<svg
   width="210mm"
   height="297mm"
   viewBox="0 0 210 297"
   version="1.1"
   id="svg5"
   inkscape:version="1.1.2 (b8e25be833, 2022-02-05)"
   sodipodi:docname="bidding zones.svg"
   xmlns:inkscape="http://www.inkscape.org/namespaces/inkscape"
   xmlns:sodipodi="http://sodipodi.sourceforge.net/DTD/sodipodi-0.dtd"
   xmlns="http://www.w3.org/2000/svg"
   xmlns:svg="http://www.w3.org/2000/svg">
  <sodipodi:namedview
     id="namedview7"
     pagecolor="#ffffff"
     bordercolor="#666666"
     borderopacity="1.0"
     inkscape:pageshadow="2"
     inkscape:pageopacity="0.0"
     inkscape:pagecheckerboard="0"
     inkscape:document-units="mm"
     showgrid="false"
     inkscape:zoom="0.26173516"
     inkscape:cx="3010.6769"
     inkscape:cy="649.51152"
     inkscape:window-width="1920"
     inkscape:window-height="1017"
     inkscape:window-x="-8"
     inkscape:window-y="-8"
     inkscape:window-maximized="1"
     inkscape:current-layer="layer1" />
  <defs
     id="defs2">
    <rect
       x="-177.6605"
       y="458.47872"
       width="132.7678"
       height="88.830252"
       id="rect7968" />
    <rect
       x="-177.66051"
       y="458.47873"
       width="132.76781"
       height="88.830254"
       id="rect7968-4" />
    <rect
       x="-177.66051"
       y="458.47873"
       width="132.76781"
       height="88.830254"
       id="rect7968-4-1" />
    <rect
       x="-177.66051"
       y="458.47873"
       width="132.76781"
       height="88.830254"
       id="rect7968-4-8" />
    <rect
       x="-177.66051"
       y="458.47873"
       width="132.76781"
       height="88.830254"
       id="rect7968-4-3" />
    <rect
       x="-177.66051"
       y="458.47873"
       width="132.76781"
       height="88.830254"
       id="rect7968-4-9" />
    <rect
       x="-177.66051"
       y="458.47873"
       width="132.76781"
       height="88.830254"
       id="rect7968-4-3-1" />
    <rect
       x="-177.66051"
       y="458.47873"
       width="132.76781"
       height="88.830254"
       id="rect7968-4-3-1-9" />
    <rect
       x="-177.66051"
       y="458.47873"
       width="132.76781"
       height="88.830254"
       id="rect7968-4-3-1-3" />
    <rect
       x="-177.66051"
       y="458.47873"
       width="132.76781"
       height="88.830254"
       id="rect7968-4-3-1-7" />
    <rect
       x="-177.66051"
       y="458.47873"
       width="132.76781"
       height="88.830254"
       id="rect7968-4-3-1-8" />
  </defs>
  <g
     inkscape:label="Layer 1"
     inkscape:groupmode="layer"
     id="layer1">
    <g
       id="g64134">
      <rect
         style="fill:#cccccc;stroke:#ff0000;stroke-width:1.32554995;stroke-miterlimit:4;stroke-dasharray:1.32554995, 1.32554995;stroke-dashoffset:0;stroke-opacity:1"
         id="rect20534"
         width="858.05322"
         height="493.67444"
         x="368.33878"
         y="-2.6548707" />
      <path
         style="fill:#333333;stroke-width:0.614581"
         d="m 651.60191,403.87266 c -4.79178,-0.35143 -5.8375,-0.74334 -6.47794,-2.42781 -0.49997,-1.31506 -0.87049,-1.50714 -2.301,-1.19295 -1.6646,0.36561 -1.69958,0.3171 -1.47441,-2.04395 0.27691,-2.90376 -1.41069,-4.99335 -4.03566,-4.99692 -3.57919,-0.005 -7.86625,-4.07669 -9.66759,-9.18225 -2.3134,-6.55691 0.004,-12.61126 4.00753,-10.46876 1.91582,1.02532 3.27834,0.33614 2.43839,-1.23331 -0.77541,-1.44889 -0.23922,-2.70083 2.08972,-4.87926 1.51611,-1.41813 2.18119,-3.734 1.07234,-3.734 -0.2863,0 -1.1583,-0.55312 -1.93777,-1.22916 -1.75772,-1.52446 -4.23168,-1.53154 -8.59757,-0.0246 -1.85549,0.64045 -3.48107,1.05701 -3.61239,0.92568 -0.13132,-0.13132 0.23418,-1.68469 0.81222,-3.45193 2.17451,-6.64822 6.49161,-10.76514 9.56421,-9.12073 1.59055,0.85124 2.6788,0.0921 2.33695,-1.63029 -0.15742,-0.79304 -0.65688,-1.07988 -1.63849,-0.941 -1.37426,0.19446 -1.38484,0.15824 -0.39541,-1.35182 0.55916,-0.8534 1.91205,-2.07991 3.00639,-2.7256 2.20021,-1.29816 4.24139,-4.94811 3.9414,-7.04787 -0.24049,-1.68326 -2.3081,-2.16587 -3.32443,-0.77595 -0.69125,0.94534 -0.78751,0.92545 -1.15709,-0.23903 -0.51946,-1.63666 -2.92815,-2.22971 -5.2127,-1.28343 -2.01873,0.83618 -3.20592,0.40137 -3.05671,-1.11954 0.2165,-2.20661 -0.0467,-2.69949 -1.27051,-2.37945 -0.91173,0.23842 -1.22916,0.0189 -1.22916,-0.85018 0,-0.7619 0.42984,-1.17164 1.22916,-1.17164 1.53055,0 1.63453,-2.15582 0.31394,-6.50906 -0.50337,-1.65931 -0.91822,-3.08841 -0.92187,-3.17579 -0.004,-0.0874 0.55491,0.1892 1.24125,0.61459 0.9633,0.59702 1.35248,0.60561 1.70633,0.0377 0.30243,-0.48543 0.76653,-0.54091 1.36406,-0.16306 1.41958,0.89771 3.05667,0.68932 3.05667,-0.38911 0,-0.53936 -0.59467,-1.81578 -1.32147,-2.8365 -1.2167,-1.70867 -1.53351,-1.82679 -3.99478,-1.48944 -2.50362,0.34316 -2.67329,0.27428 -2.67329,-1.08535 0,-2.11126 3.53008,-5.4126 4.96592,-4.64415 1.65518,0.88582 3.63102,0.70745 4.04254,-0.36494 0.5219,-1.36006 -2.06616,-3.87367 -4.44861,-4.32063 l -2.00396,-0.37594 1.43052,-2.69043 c 0.78679,-1.47973 2.0384,-3.45813 2.78139,-4.39646 1.12318,-1.41849 1.29688,-2.2382 1.03056,-4.86344 -0.17617,-1.73657 -0.75246,-3.99306 -1.28062,-5.01443 l -0.9603,-1.85701 3.10352,-0.42686 c 3.14542,-0.43259 4.29838,-1.49853 3.1576,-2.91925 -0.33582,-0.41823 -0.7301,-2.48874 -0.87618,-4.60113 l -0.2656,-3.84075 1.30796,1.22878 c 0.71937,0.67581 1.62283,1.22875 2.00766,1.22875 1.63872,0 3.79915,-1.51363 4.46915,-3.13117 0.71337,-1.72223 0.79028,-1.74457 6.59847,-1.91766 4.02474,-0.11992 5.95692,-0.4172 6.13133,-0.94333 0.15758,-0.47532 -0.32137,-0.76822 -1.25615,-0.76822 -2.79131,0 -5.27057,-0.74512 -5.63445,-1.69338 -0.56251,-1.46591 0.0389,-1.59291 2.01516,-0.4255 2.48309,1.4668 4.01589,0.82005 3.51044,-1.48121 -0.33782,-1.53811 -0.1514,-1.85454 1.49412,-2.53614 1.7123,-0.70925 2.11155,-0.62559 4.47341,0.93743 1.42633,0.9439 3.36048,1.71617 4.29811,1.71617 1.68024,0 4.78356,-1.30297 4.76063,-1.99881 -0.006,-0.19639 -1.83584,-1.42394 -4.06522,-2.72789 -3.91152,-2.28777 -4.01333,-2.40835 -2.9075,-3.44326 1.70813,-1.59857 9.21288,-5.58074 9.66511,-5.1285 0.84105,0.84106 0.29597,1.39609 -2.06605,2.10377 -1.35207,0.40509 -2.45832,1.08328 -2.45832,1.50709 0,1.24865 4.61721,1.73259 6.68562,0.70074 1.74807,-0.87205 1.8049,-0.85113 2.13217,0.78521 0.33312,1.66557 6.15907,8.61137 7.22298,8.61137 1.30186,0 0.37259,-2.16866 -1.90541,-4.44666 -1.48729,-1.48729 -2.45832,-3.03461 -2.45832,-3.91726 0,-0.80242 -0.52553,-1.78714 -1.16784,-2.18827 -0.64232,-0.40113 -1.02823,-1.09316 -0.85759,-1.53785 0.47158,-1.22893 3.86916,2.69869 3.86916,4.47279 0,1.65861 1.50238,2.01835 2.08528,0.49931 0.7172,-1.86897 0.35826,-2.9262 -1.58139,-4.65791 -1.07493,-0.95971 -1.69719,-1.74915 -1.38279,-1.75433 0.31439,-0.005 0.92668,-0.23471 1.36066,-0.51008 1.02297,-0.64909 0.2938,-2.55342 -0.97771,-2.55342 -0.73028,0 -0.80181,-0.17723 -0.28155,-0.69749 0.52026,-0.52026 1.35104,-0.35683 3.26964,0.64321 1.41469,0.73737 2.68495,1.22787 2.82282,1.09 0.13787,-0.13786 -0.0336,-0.99843 -0.38111,-1.91236 -1.10758,-2.91316 -0.83575,-3.90854 0.97297,-3.56278 1.45485,0.27811 1.56139,0.17014 1.14051,-1.15592 -0.40546,-1.27751 -0.34263,-1.36177 0.4964,-0.66543 0.59764,0.49598 2.19867,0.7264 4.23707,0.60974 2.8631,-0.16383 3.30124,-0.3621 3.473,-1.57164 0.42473,-2.99076 5.3909,-3.27391 7.26466,-0.41419 0.89615,1.36771 0.87177,1.63557 -0.33523,3.68125 -1.52309,2.58147 -1.25864,3.34104 1.16321,3.34104 1.853,0 3.69512,-1.36785 3.69512,-2.74376 0,-1.21225 1.73184,-1.65041 4.7402,-1.19927 2.10247,0.31528 2.94381,0.16636 3.88808,-0.68818 1.3462,-1.2183 1.5556,-2.76192 0.51572,-3.8018 -0.50932,-0.50933 0.1726,-1.12071 2.61197,-2.34174 3.32918,-1.66643 6.06687,-3.77706 6.06687,-4.67728 0,-0.2683 -0.73807,-0.87453 -1.64017,-1.34719 l -1.64017,-0.85937 1.64017,-1.07468 c 1.69681,-1.11179 2.22065,-2.77879 0.87194,-2.77476 -1.55854,0.005 -4.6622,2.42412 -7.59127,5.91777 -1.65563,1.97477 -4.17554,4.79564 -5.59977,6.2686 l -2.58953,2.67812 -2.63441,-1.46194 c -2.25707,-1.25254 -2.63356,-1.74508 -2.62846,-3.43862 0.005,-1.57147 -0.24725,-1.97707 -1.22916,-1.97858 -0.9786,-0.001 -0.56502,-0.65543 1.99143,-3.14872 1.77461,-1.73074 3.22656,-3.40573 3.22656,-3.72219 0,-1.16673 4.8555,-10.70419 5.95694,-11.70098 0.78356,-0.70911 1.42201,-0.85153 2.04665,-0.45653 1.55222,0.98156 2.35503,0.65655 2.5571,-1.03521 0.50644,-4.24006 4.58374,-2.77186 4.92537,1.77359 l 0.18575,2.4714 2.91926,-3.76758 c 3.07971,-3.97468 3.66321,-5.44944 1.84374,-4.65992 -1.99067,0.8638 -4.91779,1.02335 -5.36939,0.29266 -0.58524,-0.94694 1.85692,-3.51618 4.75481,-5.00221 2.85526,-1.46419 3.06983,-2.6927 0.3762,-2.15398 -1.39526,0.27906 -2.12857,0.11206 -2.65212,-0.60395 -0.39801,-0.5443 -2.06744,-1.33084 -3.70985,-1.74786 l -2.98619,-0.75823 1.97382,-0.68808 c 1.32165,-0.46073 2.488,-0.4926 3.52994,-0.0965 2.358,0.89651 4.24226,0.13876 8.66048,-3.48279 2.216,-1.8164 4.2276,-3.30256 4.47026,-3.30256 0.24265,0 0.94175,0.55312 1.55355,1.22916 1.9991,2.20897 5.94766,0.92872 4.9726,-1.61227 -0.35904,-0.93563 -0.47348,-0.93679 -1.49181,-0.0152 -1.02936,0.93157 -1.23269,0.86428 -3.0481,-1.00875 -2.87469,-2.96592 -3.07314,-5.06899 -0.79516,-8.42621 1.03211,-1.52109 1.88159,-3.10013 1.88774,-3.50897 0.006,-0.40884 0.68702,-1.37681 1.51304,-2.15103 1.69517,-1.58888 2.80021,-4.12062 2.80021,-6.41555 0,-2.07782 -1.29824,-1.59631 -2.41559,0.89593 -0.48352,1.0785 -1.07353,1.96091 -1.31113,1.96091 -0.63087,0 -1.18257,-2.44317 -1.11024,-4.91665 0.0346,-1.18307 0.18938,-1.66705 0.34397,-1.07552 0.42741,1.63557 3.39222,1.36498 5.11294,-0.46664 0.93514,-0.99542 1.84468,-1.41651 2.56545,-1.18775 1.2812,0.40663 1.50205,-1.09307 0.5354,-3.63557 -0.44007,-1.15746 -0.35082,-1.72012 0.36739,-2.31618 0.65298,-0.54192 0.8462,-1.41877 0.61991,-2.81322 -0.18081,-1.11428 -0.0696,-2.02593 0.24719,-2.02593 0.31676,0 0.57594,-0.42457 0.57594,-0.94349 0,-0.74236 0.25341,-0.80787 1.18876,-0.30729 1.59061,0.85127 1.88414,0.80494 1.88414,-0.29738 0,-0.68893 0.40264,-0.83253 1.53645,-0.54795 1.26299,0.31699 1.53646,0.16236 1.53646,-0.86875 0,-1.43789 -2.3587,-2.49281 -3.05493,-1.3663 -0.29612,0.47914 -0.78681,0.1925 -1.47904,-0.86397 -1.12841,-1.72217 -1.34529,-1.51159 3.22088,-3.12741 0.49209,-0.17413 0.70609,-0.80079 0.51848,-1.51821 -0.25347,-0.96926 -0.0139,-1.2217 1.15943,-1.2217 1.64528,0 2.03121,-1.63652 0.71069,-3.01364 -0.6182,-0.6447 -0.54085,-0.93874 0.39609,-1.50572 3.03882,-1.83891 6.318,-4.62401 7.48737,-6.35922 0.90843,-1.34803 1.54152,-1.76034 2.13743,-1.39205 0.98703,0.61002 2.42437,-0.36939 2.42437,-1.65198 0,-0.47625 -0.3997,-1.01928 -0.88821,-1.20674 -0.7423,-0.28485 -0.67608,-0.77747 0.40302,-2.99859 1.55993,-3.2108 3.81555,-4.51067 5.37628,-3.09823 1.1217,1.01513 6.17136,1.32709 6.17136,0.38126 0,-0.31006 -1.24127,-1.0378 -2.75839,-1.61719 l -2.75839,-1.05344 1.83652,-2.09168 c 3.54874,-4.04179 1.30492,-6.20596 -3.08012,-2.97078 -1.1454,0.84505 -2.30538,1.53645 -2.57773,1.53645 -0.85394,0 -0.51757,-2.04411 0.80908,-4.91665 1.18737,-2.57097 1.31478,-2.66829 1.81044,-1.3828 0.29324,0.76054 0.77775,1.3828 1.07667,1.3828 0.84966,0 4.59857,-2.68415 4.85931,-3.47916 0.12871,-0.39246 -0.38979,-1.29471 -1.15221,-2.00501 -1.30528,-1.21605 -1.32515,-1.35254 -0.34028,-2.3374 0.65583,-0.65583 1.04594,-0.7676 1.04594,-0.29967 0,1.37564 2.34228,0.76441 3.61675,-0.94382 l 1.26096,-1.6901 0.0195,2.91926 c 0.0107,1.60559 0.27341,2.91926 0.58378,2.91926 2.34796,0 4.63351,-3.27507 4.01245,-5.7496 -0.2917,-1.1622 -0.0761,-1.53827 1.06247,-1.85294 l 1.42845,-0.3948 -1.46054,-1.132897 -1.46054,-1.132901 1.9983,-0.399655 c 1.09906,-0.219817 3.19025,-0.399662 4.64708,-0.399662 5.01987,0 7.44793,-2.170723 4.84469,-4.331226 -0.79352,-0.658567 -1.92754,-0.513931 -6.63798,0.846615 -7.05067,2.036487 -7.24457,2.036911 -7.02456,0.01524 0.24587,-2.25937 -1.03665,-2.481375 -1.92635,-0.333453 -0.58784,1.419178 -1.03338,1.71771 -2.22389,1.490131 -1.16234,-0.222195 -1.72037,0.118922 -2.54497,1.555707 -0.98367,1.713942 -1.35367,1.860324 -5.38888,2.131969 -3.79976,0.255787 -5.391,0.806851 -12.93682,4.480142 -4.73227,2.30367 -9.22639,4.7425 -9.98693,5.41962 -1.99658,1.77759 -1.83665,-0.0427 0.19639,-2.23523 2.46991,-2.66369 5.68548,-4.4317 11.33648,-6.2331 6.88557,-2.194958 11.65046,-4.587047 13.08245,-6.567699 0.64031,-0.885642 1.67974,-3.46945 2.30984,-5.7418 0.99261,-3.579669 1.03163,-4.308641 0.29213,-5.457422 -1.06691,-1.657358 -0.11879,-4.791099 2.48067,-8.199158 2.14432,-2.811356 2.60504,-1.805792 0.91899,2.005807 -1.58284,3.578273 -1.58939,4.172296 -0.0415,3.767527 1.47346,-0.385317 1.46058,-0.474671 0.27433,1.903228 -0.60248,1.2077 -0.88597,3.113558 -0.76822,5.164709 0.15889,2.768065 0.37928,3.278222 1.48438,3.435967 1.28581,0.183538 1.6847,-0.394653 3.72902,-5.405274 l 0.62528,-1.532549 0.96294,1.839839 c 1.55749,2.975837 3.43215,4.605447 5.29799,4.605447 2.5425,0 3.99393,-1.911844 3.61218,-4.758023 l -0.31215,-2.327276 2.38042,0.227008 c 2.4774,0.236257 3.03811,-0.434908 1.45854,-1.745839 -1.17158,-0.972322 -1.16749,-2.524538 0.0141,-5.352488 1.3814,-3.306137 0.33404,-3.801612 -3.15327,-1.491717 -3.75621,2.488014 -4.17085,2.444513 -3.59479,-0.377119 0.25879,-1.267573 0.45227,-2.8578 0.42995,-3.533839 -0.12696,-3.845726 3.58785,-8.91142 6.53498,-8.91142 1.70307,0 3.7259,2.163669 2.42746,2.596481 -0.46036,0.153455 -0.54065,1.503043 -0.25055,4.211905 0.4999,4.668042 1.05291,5.819643 2.52365,5.255268 1.05886,-0.406324 1.0246,-2.436383 -0.11852,-7.023705 -0.32159,-1.290577 -0.19911,-1.376618 1.4122,-0.992001 0.97039,0.231629 2.52217,0.856437 3.44841,1.388448 1.29808,0.745604 1.851,0.800369 2.41242,0.238949 0.56142,-0.561419 -0.16188,-1.554729 -3.15578,-4.333889 l -3.88414,-3.605539 1.45482,-1.01899 c 0.80015,-0.560451 1.80917,-1.018998 2.24227,-1.018998 0.51068,0 0.73264,-0.701946 0.63149,-1.997014 -0.13211,-1.691309 0.0685,-2.028812 1.3105,-2.204741 0.83228,-0.117896 2.27246,0.388155 3.33018,1.170163 l 1.8637,1.377893 1.46434,-1.702386 c 0.80537,-0.936312 1.53408,-1.601335 1.61933,-1.477829 0.0852,0.123508 0.66619,1.399944 1.29098,2.836527 1.4034,3.226835 2.60454,3.343802 3.15558,0.307289 0.23003,-1.267572 1.0031,-3.410922 1.71794,-4.763 l 1.29972,-2.458322 0.30729,5.223935 c 0.16901,2.873166 0.53103,5.569639 0.8045,5.992163 1.53655,2.374109 3.46199,-1.075365 3.51624,-6.299453 0.0174,-1.674497 0.5074,-3.046192 1.53683,-4.302065 1.43136,-1.746227 1.51146,-1.770605 1.51434,-0.460935 0.004,2.040677 1.79401,1.717646 2.55347,-0.460935 0.75367,-2.161975 0.95066,-2.20259 2.98081,-0.614582 0.84505,0.661008 2.15872,1.20798 2.91926,1.215496 2.84502,0.02812 1.12062,-3.928301 -3.72495,-8.546429 -2.19819,-2.095005 -2.69775,-2.905455 -2.1774,-3.532438 0.94531,-1.139025 1.3711,-1.021903 2.06913,0.569146 0.39639,0.903494 1.13925,1.382805 2.14313,1.382805 1.30417,0 1.51022,-0.252227 1.36295,-1.66838 l -0.17351,-1.668381 4.62922,1.664938 c 3.31832,1.193467 4.62921,1.963712 4.62921,2.720012 0,1.160473 6.11864,4.448779 6.8734,3.69393 0.242,-0.242029 0.18054,-1.594799 -0.13658,-3.006154 -0.81182,-3.612937 0.23946,-8.530523 2.52053,-11.790412 1.03122,-1.473712 1.73383,-2.820592 1.56135,-2.993066 -0.89926,-0.899266 -3.59469,0.796858 -5.59348,3.519762 -2.57637,3.509716 -3.38148,3.822436 -3.38148,1.313426 0,-1.298811 0.88802,-2.68544 3.38225,-5.281324 L 862.1,21.89175 l 3.08902,0.42485 c 4.71272,0.648164 6.20973,-1.212203 3.62234,-4.501542 l -1.27409,-1.619731 1.3128,-0.585786 c 0.9836,-0.438895 1.2231,-0.943189 0.95509,-2.011047 -0.19675,-0.783892 -0.28331,-1.42512 -0.19237,-1.424949 0.091,1.61e-4 1.60381,0.547037 3.36191,1.21526 2.75919,1.048717 3.31578,1.095714 4.06801,0.34349 0.4793,-0.479304 1.4395,-0.722916 2.13376,-0.541359 1.24741,0.326204 1.24913,0.360833 0.14541,2.935703 -1.72604,4.026696 -3.80191,12.984862 -3.58918,15.488661 0.22547,2.653776 1.75963,3.965152 3.4178,2.921486 0.68076,-0.428473 1.21629,-1.806234 1.45905,-3.753667 0.50699,-4.067013 2.09312,-8.79558 4.59323,-13.693238 3.08053,-6.034729 3.46643,-6.377788 3.11095,-2.765613 -0.25717,2.613171 -0.0246,3.560748 1.55452,6.333717 2.06911,3.633402 4.02244,4.177428 4.84196,1.348542 1.22194,-4.218017 1.9967,-12.5142816 1.38328,-14.8124622 -0.81694,-3.0606784 0.11038,-3.9322503 4.18379,-3.9322503 2.20138,0 3.29704,0.3356611 4.2693,1.3079297 1.63276,1.6327619 0.97071,3.1882512 -2.18788,5.1403633 -2.36624,1.4624175 -2.78555,2.4631285 -1.03208,2.4631285 1.54733,0 2.06483,0.652954 1.27335,1.606628 -0.90515,1.09065 -0.0912,2.211121 1.28819,1.773315 0.88371,-0.280477 1.05935,-0.100714 0.81491,0.834043 -0.37844,1.447161 0.77134,3.775562 1.86441,3.775562 0.43622,0 1.45531,-0.704871 2.26466,-1.566379 1.1919,-1.268718 1.51747,-2.379324 1.71326,-5.844296 0.22007,-3.8946679 0.37225,-4.3106773 1.69867,-4.6435861 0.97776,-0.2454024 2.38912,0.1806236 4.29119,1.2953137 2.09455,1.2274884 3.41909,1.5927064 5.0751,1.3993774 1.78038,-0.20785 2.46441,0.02262 3.32887,1.121602 0.59842,0.760764 1.98349,1.562195 3.07793,1.780958 1.09444,0.218763 3.31404,0.818825 4.93244,1.333474 2.57352,0.818375 2.89132,1.101976 2.53411,2.261404 -1.9719,6.40034 -7.76796,10.053437 -17.15369,10.811503 -5.02417,0.405793 -5.45473,1.440944 -0.78386,1.884549 4.101,0.38948 7.60209,2.514731 8.77765,5.328241 0.59942,1.434619 1.14295,1.979387 1.65756,1.661338 0.42113,-0.260272 1.46403,-0.487597 2.31756,-0.505166 1.12922,-0.02324 1.60536,-0.408546 1.74826,-1.41475 0.25638,-1.805242 2.43781,-1.839215 4.68327,-0.07294 2.26199,1.779287 3.13464,4.15271 1.95906,5.328289 -0.88756,0.88756 -1.51284,0.795587 -5.45592,-0.802535 -0.9186,-0.372309 -1.07551,-0.07418 -1.07551,2.043513 0,2.411722 -0.35332,3.219213 -6.05893,13.84724 l -1.93062,3.596247 -0.005,-2.674375 c -0.003,-1.470907 0.47653,-4.553869 1.06526,-6.851025 1.04264,-4.06821 1.03879,-4.235625 -0.14848,-6.44832 -0.93358,-1.739914 -1.979,-2.574521 -4.466,-3.565433 -1.7859,-0.711567 -5.07009,-2.754626 -7.29821,-4.54013 -6.83631,-5.478272 -10.59723,-6.048392 -12.94251,-1.961965 -0.68439,1.192462 -1.80969,1.966078 -3.52864,2.425824 -2.7258,0.729041 -6.51485,3.996644 -8.02841,6.923538 -1.77315,3.428883 -2.42157,11.083544 -1.55568,18.364766 0.9416,7.917744 0.56708,10.247908 -1.86993,11.634211 -1.29706,0.737841 -1.77784,1.477975 -1.78068,2.741239 -0.01,4.425363 -3.20197,5.325219 -9.11892,2.570681 -3.80567,-1.771658 -4.20713,-1.653769 -8.5547,2.511933 -1.8835,1.804704 -3.19153,2.611101 -3.81445,2.351588 -0.52141,-0.217217 -1.91598,-0.625606 -3.09905,-0.907527 -2.69965,-0.643318 -5.43707,-3.665685 -9.14863,-10.100916 -3.48439,-6.041396 -5.82066,-7.566485 -9.66718,-6.310631 -2.22422,0.726188 -2.40013,0.95775 -2.5762,3.391372 -0.1718,2.374488 -0.33944,2.613474 -1.84375,2.628501 -0.91011,0.0091 -2.60813,0.807036 -3.77338,1.773212 -2.29396,1.902066 -2.40657,2.616701 -1.53638,9.749371 0.3063,2.510667 0.15948,3.602592 -0.65068,4.839055 -0.83944,1.281142 -0.91057,1.894549 -0.35986,3.103227 0.94945,2.083828 0.39942,2.644061 -2.59205,2.640079 -3.08373,-0.0043 -6.56793,-0.882575 -10.06415,-2.537481 -1.87031,-0.885298 -3.17901,-1.103425 -4.79794,-0.799717 -3.30934,0.620837 -3.91607,2.048606 -3.84571,9.04983 0.0718,7.149432 -0.47174,8.163502 -3.85567,7.193012 -1.17096,-0.33583 -3.33355,-0.61059 -4.80576,-0.61059 -2.20195,0 -2.993,0.33856 -4.45976,1.90874 -1.12883,1.2084 -1.78303,2.57034 -1.78303,3.71196 0,2.04732 -1.63565,5.50458 -4.73788,10.01443 -2.32304,3.37711 -2.35103,3.87313 -0.63138,11.18794 1.07443,4.57031 0.67103,5.82368 -3.67367,11.41389 -5.48552,7.05809 -6.31597,8.57467 -6.32126,11.54407 -0.009,4.9686 -3.69295,8.60413 -8.71906,8.60413 h -2.07988 l 0.24163,6.01594 c 0.32237,8.02587 -0.7887,19.8288 -2.10782,22.39146 -0.57028,1.1079 -2.40233,4.04154 -4.07123,6.51921 -3.92022,5.82005 -4.76948,7.94027 -4.68487,11.69598 0.0627,2.7814 0.23853,3.14517 1.84149,3.80914 3.04414,1.26092 3.11599,6.24355 0.14104,9.77909 -1.7319,2.05824 -4.48052,2.45797 -8.1369,1.18335 -2.732,-0.95238 -4.39025,-0.36255 -7.93121,2.82108 -6.71094,6.03371 -9.91406,13.96641 -10.30204,25.51353 -0.1306,3.88723 -0.51813,8.17394 -0.86116,9.52601 -0.88291,3.47994 -0.79703,7.2945 0.28048,12.45937 0.8337,3.99619 0.83365,5.13103 -4.8e-4,10.70977 -1.48862,9.95587 -1.55414,9.66777 3.41836,15.03063 2.39326,2.58112 4.60394,5.35724 4.91262,6.16912 0.70051,1.84249 -0.72847,5.584 -2.32221,6.08023 -3.64254,1.13416 -5.0143,2.13261 -5.67331,4.12945 -0.7558,2.29011 -0.53809,3.66417 1.83537,11.58361 l 1.40982,4.70413 -1.3676,4.20731 c -1.82352,5.60988 -5.03755,10.36406 -8.38124,12.39745 -3.44891,2.09739 -3.92843,3.46492 -4.6426,13.24032 -0.56691,7.75968 -2.05454,13.29333 -3.57369,13.29333 -0.33793,0 -1.1045,-0.82968 -1.70353,-1.84374 -1.42031,-2.40439 -3.67522,-2.50708 -4.54964,-0.2072 -0.87188,2.29323 -2.0331,0.97273 -2.16994,-2.46762 -0.16219,-4.07741 -0.75521,-5.41705 -2.3005,-5.19692 -0.97019,0.13823 -1.66257,1.06058 -2.55919,3.4092 -0.67604,1.77085 -1.43594,3.22279 -1.68867,3.22654 -0.25273,0.004 -1.77382,0.94608 -3.38019,2.09404 -1.60638,1.14794 -4.71833,2.83896 -6.91547,3.75779 -5.44442,2.27684 -6.58619,3.16616 -15.05721,11.72784 -6.20916,6.27561 -8.10361,7.80343 -11.98433,9.66507 -4.74698,2.27717 -7.88362,2.86432 -13.21348,2.47344 z m -6.50026,-70.02101 c 2.03911,-1.71579 2.47632,-3.75408 0.93234,-4.34655 -1.30984,-0.50264 -4.57267,2.71988 -4.57267,4.51617 0,1.87087 1.2866,1.81092 3.64033,-0.16962 z m 6.54242,-2.17795 c 0.82176,-1.58911 0.85134,-2.01673 0.16943,-2.44892 -2.2566,-1.43017 -4.60378,0.2488 -3.956,2.82979 0.55445,2.2091 2.55109,2.00828 3.78657,-0.38087 z m 5.79635,-21.4146 c 0,-0.33024 -0.68044,-1.04625 -1.51209,-1.59117 -1.22469,-0.80245 -2.39243,-0.90827 -6.14377,-0.55674 -3.7774,0.35398 -4.91545,0.24809 -6.17017,-0.57404 -0.84617,-0.55441 -1.53849,-0.82953 -1.53849,-0.61134 0,0.2182 -0.34569,0.11112 -0.76822,-0.23792 -0.53384,-0.44101 -1.48537,-0.38751 -3.11864,0.17533 -2.91834,1.0057 -3.29124,1.36608 -2.36843,2.28891 0.54634,0.54632 1.35551,0.56361 3.21022,0.0686 2.08495,-0.5565 2.83898,-0.47872 4.7361,0.48848 1.72523,0.87957 3.60007,1.15035 7.96492,1.15035 3.30618,0 5.70857,-0.25269 5.70857,-0.60041 z m -9.61152,-22.44514 c 0.41551,-1.0828 -2.25208,-3.0626 -3.48769,-2.58845 -0.44939,0.17245 -1.14527,-0.21198 -1.5464,-0.8543 -1.1276,-1.80558 -2.04731,-1.38942 -1.83336,0.82956 0.12213,1.2667 0.52982,2.0057 1.11445,2.02013 0.50703,0.0125 1.475,0.34978 2.15104,0.74953 1.69781,1.00391 3.18142,0.93945 3.60196,-0.15647 z m -1.49554,-7.45909 c 1.80508,-2.29479 1.6088,-6.3702 -0.30681,-6.3702 -1.45147,0 -3.11185,5.02799 -2.33173,7.06094 0.51079,1.33111 1.18751,1.15395 2.63854,-0.69074 z m 17.17914,-3.85332 c 0.69751,-0.44176 0.58835,-1.06645 -0.61459,-3.51713 -0.8215,-1.67362 -1.96296,-3.07578 -2.60385,-3.19858 -1.03992,-0.19926 -1.10145,0.0726 -0.69384,3.06562 0.53731,3.94522 1.71358,5.04268 3.91228,3.65009 z m 7.97156,-7.49365 c 2.12483,-0.74072 2.46221,-1.44999 0.96333,-2.02516 -2.70509,-1.03803 -5.04264,-0.0613 -4.32556,1.80742 0.41069,1.07022 0.83752,1.09785 3.36223,0.21774 z m 87.48001,-105.42184 c 3.39933,-0.56203 6.52075,-3.91341 3.6449,-3.91341 -0.63465,0 -1.45319,0.36061 -1.81897,0.80135 -0.88081,1.06132 -5.01667,0.59857 -5.01667,-0.5613 0,-1.1208 -1.49284,-1.0961 -2.43598,0.0403 -0.80331,0.96792 -0.30239,2.42357 0.63471,1.84441 0.31466,-0.19447 0.57211,0.21586 0.57211,0.91185 0,1.36689 0.66168,1.49815 4.4199,0.87678 z m 20.03482,-28.89057 c 0.77436,-0.20743 1.30616,-0.68764 1.18178,-1.06712 -0.4066,-1.24047 -4.26847,-3.45559 -6.02453,-3.45559 -1.96931,0 -2.6388,0.74941 -2.12257,2.37594 0.63242,1.99257 3.84483,2.98267 6.96532,2.14677 z m 5.53682,-24.31221 c 0.40562,-0.40562 0.7375,-1.25454 0.7375,-1.88649 0,-1.9739 -2.7244,-1.11437 -2.96008,0.93389 -0.20855,1.81247 0.89131,2.28387 2.22258,0.9526 z m 17.83753,-22.823003 c 0.24167,-1.246105 -1.55593,-2.062723 -2.48828,-1.13038 -0.4838,0.483798 -0.44666,0.939412 0.13356,1.638522 0.95972,1.156395 2.07874,0.914914 2.35472,-0.508142 z m 19.77481,-18.53828 c 0,-1.692764 -1.9411,-3.994775 -3.36849,-3.994775 -0.50058,0 -1.0779,-0.760543 -1.28291,-1.690096 -1.37767,-6.246385 -3.39794,-8.776581 -3.84916,-4.820712 -0.20358,1.784761 1.52386,6.510808 2.3798,6.510808 0.24913,0 0.41455,0.483983 0.3676,1.075517 -0.059,0.743427 0.4365,1.13556 1.60474,1.269981 1.13268,0.130335 1.6901,0.552613 1.6901,1.280381 0,1.295622 0.52445,1.905348 1.63888,1.905348 0.46435,0 0.81944,-0.665794 0.81944,-1.536452 z"
         id="path670" />
      <path
         style="fill:#333333;stroke-width:0.614581"
         d="m 735.64582,487.72325 c -1.62561,-0.784 -1.70665,-1.58726 -0.46094,-4.56864 1.53237,-3.66748 1.12947,-5.90063 -2.45832,-13.62562 -1.85911,-4.0029 -3.3802,-7.49767 -3.3802,-7.76616 0,-0.26847 1.10625,-0.31124 2.45833,-0.0951 2.64638,0.42318 3.37078,-0.55737 1.53645,-2.07974 -1.326,-1.10047 -1.14033,-2.69641 0.61458,-5.28241 0.84505,-1.24525 1.53645,-2.76939 1.53645,-3.38697 0,-0.61759 -1.28986,-2.5752 -2.86636,-4.35026 -3.03167,-3.41349 -8.5801,-14.22893 -10.34623,-20.16772 -0.55289,-1.85911 -1.5398,-4.56297 -2.19317,-6.0086 -1.44363,-3.19419 -1.48824,-5.53605 -0.20968,-11.00789 1.13871,-4.87328 0.89273,-10.26122 -0.53359,-11.68756 -0.9043,-0.90427 -1.11339,-0.9017 -2.53719,0.0312 -2.03784,1.33523 -2.20952,1.29483 -2.20952,-0.51977 0,-0.84504 -0.58067,-2.1171 -1.29035,-2.82679 -1.17248,-1.17247 -1.29785,-2.04085 -1.37242,-9.50566 -0.0949,-9.499 0.53396,-11.19963 2.62546,-7.09995 0.7103,1.39228 1.51065,2.53144 1.77856,2.53144 1.02821,0 3.78127,-3.50828 4.62119,-5.88889 0.48344,-1.37018 1.07064,-5.51469 1.30491,-9.21 0.58013,-9.15116 1.10801,-10.95383 3.67164,-12.53824 4.37043,-2.70107 7.97969,-8.25276 9.93315,-15.27894 1.01489,-3.65036 1.00805,-3.75922 -0.55351,-8.81433 -2.46394,-7.97634 -2.57797,-9.18465 -1.05012,-11.127 0.72404,-0.92046 1.83407,-1.67358 2.46673,-1.67358 0.63265,0 1.89961,-0.64454 2.81545,-1.43232 1.34889,-1.16026 1.71986,-2.09185 1.95312,-4.90469 l 0.28796,-3.47236 -4.29674,-4.46767 c -5.7493,-5.97801 -5.81257,-6.12924 -4.71935,-11.28017 1.16488,-5.4886 1.15256,-13.87413 -0.026,-17.68555 -0.82779,-2.67708 -0.82271,-3.47585 0.0489,-7.68226 0.53503,-2.582 1.06475,-7.7367 1.17717,-11.45492 0.35579,-11.76784 4.36755,-20.64785 11.44376,-25.33066 2.1815,-1.44365 2.61537,-1.52399 4.76003,-0.88143 7.56909,2.26775 11.94667,-1.0326 11.96478,-9.02052 0.008,-3.64615 -0.11351,-3.98474 -1.95015,-5.42212 -3.17333,-2.4835 -2.56542,-5.24353 2.95766,-13.42837 1.74719,-2.58922 3.54079,-5.58437 3.98579,-6.6559 1.0364,-2.49557 2.34022,-16.59822 2.06451,-22.33057 l -0.21178,-4.40323 2.19965,-0.35024 c 4.93069,-0.78507 8.5527,-5.01902 8.55456,-9.99984 6.4e-4,-2.2462 0.60545,-3.36834 4.89335,-9.08185 6.34992,-8.4611 7.19314,-11.23891 4.9274,-16.23217 -1.77906,-3.9207 -1.55031,-5.4144 1.41922,-9.26699 3.15229,-4.08972 4.1255,-6.18043 4.1255,-8.8627 0,-1.19272 0.52677,-2.57165 1.29907,-3.40063 1.21673,-1.306 1.61629,-1.36797 6.30335,-0.97754 4.65696,0.38792 5.08932,0.32281 6.22954,-0.93825 1.06233,-1.1749 1.22527,-2.22489 1.22527,-7.896119 v -6.541017 l 1.57745,-0.183597 c 0.86759,-0.100979 4.00985,0.521284 6.98278,1.382806 5.47516,1.58664 10.39483,1.998041 11.96977,1.000956 0.75086,-0.475369 1.06356,-2.839278 0.61873,-4.677318 -0.0793,-0.327663 0.20447,-1.425434 0.63061,-2.439493 0.54223,-1.290333 0.65527,-3.489159 0.37657,-7.325635 l -0.39821,-5.481894 2.4453,2.1017 c 1.34491,1.155935 4.65819,4.088526 7.36282,6.516869 3.85407,3.460361 6.58151,5.227754 12.61206,8.172682 5.09387,2.487512 8.23248,4.422643 9.2861,5.725412 0.87536,1.082345 2.27159,2.733224 3.10273,3.668618 1.70012,1.91338 1.73559,2.12196 1.7837,10.48907 0.0341,5.92822 0.0699,6.07423 1.86955,7.62359 1.67064,1.4383 1.86983,2.02473 2.22653,6.55493 0.40309,5.11933 1.40383,8.10334 3.64078,10.85601 1.07985,1.3288 1.37886,2.93363 1.88937,10.14058 0.71746,10.12824 1.63386,13.76368 4.56893,18.12517 2.61001,3.87846 2.19061,4.47714 -2.81105,4.01272 -2.92036,-0.27117 -3.5076,-0.14442 -4.15829,0.89751 -0.75369,1.20685 -0.77053,1.20673 -3.18167,-0.0234 -2.89897,-1.47893 -4.03485,-1.49224 -6.45084,-0.0755 -2.04341,1.19823 -2.98822,4.01598 -2.44418,7.2894 0.2929,1.76231 0.16846,1.99738 -1.05735,1.99738 -0.91376,0 -2.60624,1.311 -4.9445,3.83002 -1.95535,2.10651 -3.55517,3.88579 -3.55517,3.95396 0,0.0682 0.76054,0.21144 1.69009,0.3184 1.61465,0.18578 1.68874,0.34205 1.65958,3.50048 -0.0253,2.73318 -0.29389,3.53255 -1.55049,4.61343 -4.88703,4.20364 -4.83884,8.67694 0.15522,14.40946 1.94722,2.23515 1.91709,3.52412 -0.1461,6.2491 -3.892,5.14039 -6.05018,8.88735 -6.43671,11.17522 -0.59517,3.52278 -3.03186,7.01741 -6.179,8.86175 -1.43388,0.84032 -3.74578,2.76323 -5.13758,4.27314 -2.07791,2.25427 -2.80193,2.67718 -4.04793,2.36445 -0.86317,-0.21664 -1.51741,-0.11326 -1.51741,0.23979 0,0.34134 -1.42954,2.31106 -3.17677,4.37714 -2.1867,2.58575 -3.4937,3.65592 -4.19365,3.43376 -1.56358,-0.49626 -6.32577,6.207 -5.99769,8.44236 0.21548,1.46813 -0.1477,1.95983 -2.6187,3.54547 -3.35373,2.15209 -4.29435,3.88041 -4.29435,7.8906 0,1.60658 -0.33187,3.25294 -0.7375,3.65857 -0.40562,0.40562 -2.20327,0.7375 -3.99477,0.7375 -2.51599,0 -3.25728,0.21428 -3.25728,0.94161 0,1.637 1.74962,5.20665 2.73786,5.58587 1.33847,0.51362 1.18469,2.06422 -0.58082,5.85674 -1.72077,3.69641 -1.99035,7.68443 -0.64013,9.46958 1.37727,1.82092 1.15469,2.11484 -1.60153,2.11484 h -2.54293 l 0.46774,3.53384 c 0.25726,1.94361 0.54376,6.16118 0.63667,9.37236 0.31795,10.98918 1.286,15.25093 4.16444,18.33378 1.89826,2.03306 4.57788,3.30882 6.00111,2.8571 1.75802,-0.55797 9.18043,6.63202 9.18043,8.89295 0,1.35211 0.55942,1.89267 3.40079,3.28622 1.87044,0.91734 3.55151,2.15034 3.7357,2.74 0.18419,0.58964 0.75125,1.84545 1.26015,2.79068 0.77485,1.43926 0.79199,1.8798 0.10543,2.71017 -0.4509,0.54536 -0.81981,1.56964 -0.81981,2.27617 0,0.79928 -1.78114,2.98945 -4.71448,5.79714 -3.83291,3.66872 -4.9628,4.43371 -6.04242,4.09105 -1.13232,-0.35939 -1.29791,-0.20931 -1.12404,1.0187 0.18813,1.32876 0.52906,1.45432 4.40683,1.62314 3.48088,0.15153 4.14077,0.34495 3.84113,1.12578 -0.19899,0.51856 -0.3618,1.0682 -0.3618,1.22147 0,0.15325 -0.57473,-0.029 -1.27718,-0.40489 -2.08749,-1.11717 -3.02488,-0.30053 -3.02488,2.63529 0,3.03432 -1.36071,5.37997 -3.12093,5.37997 -0.73158,0 -1.49357,0.66613 -1.93333,1.6901 -0.98674,2.29757 -0.94647,2.2683 -1.9614,1.42597 -0.49476,-0.41061 -1.6681,-0.65744 -2.60744,-0.54851 -1.61268,0.18701 -2.23462,0.95871 -3.87443,4.8074 -0.21602,0.50704 -1.96952,1.71717 -3.89665,2.6892 -2.83082,1.42783 -4.56615,1.82788 -9.03395,2.08263 -4.10104,0.23383 -5.53007,0.53151 -5.53007,1.15193 0,0.58451 0.85176,0.83662 2.82638,0.83662 3.42863,0 7.00691,1.56675 7.00691,3.06797 0,0.5963 -0.62226,1.49985 -1.3828,2.0079 -1.36118,0.90927 -1.36462,0.94395 -0.22057,2.21657 0.98742,1.09838 1.08778,1.7796 0.66725,4.52883 -0.27224,1.77979 -0.51869,4.56886 -0.54765,6.19796 -0.0381,2.1437 -0.3498,3.12842 -1.12819,3.56438 -1.33804,0.74941 -1.36626,1.98457 -0.0899,3.9326 0.8151,1.24401 0.86148,1.85175 0.26799,3.51221 -0.39471,1.10435 -1.10977,5.84413 -1.58902,10.53285 -0.91623,8.96406 -2.3269,14.95476 -5.27015,22.38092 -1.9738,4.9801 -5.31178,11.80751 -5.7728,11.80751 -0.16399,0 -2.83906,-0.43849 -5.94461,-0.97442 -6.76008,-1.16661 -10.48567,-0.77273 -12.58934,1.33093 -0.81797,0.81798 -1.7877,1.48722 -2.15497,1.48722 -1.55214,0 -4.92879,2.75354 -6.34949,5.17778 -1.78172,3.04028 -2.04394,7.41216 -0.61079,10.18357 0.86452,1.67179 0.83764,1.83736 -0.44404,2.73509 -0.98081,0.68699 -2.92367,0.96315 -6.91239,0.98255 -3.21486,0.0156 -6.58197,0.39943 -8.00644,0.91261 -2.87267,1.03492 -3.80599,1.06021 -5.68487,0.15407 z"
         id="path937" />
      <text
         xml:space="preserve"
         transform="matrix(0.63611346,0,0,0.63611346,797.13027,-15.348877)"
         id="text7966-8"
         style="font-style:normal;font-weight:normal;font-size:17.3333px;line-height:1.25;font-family:sans-serif;white-space:pre;shape-inside:url(#rect7968-4-3);fill:#ffffff;fill-opacity:1;stroke:none"><tspan
           x="-177.66016"
           y="474.29221"
           id="tspan64180">NO3</tspan></text>
      <text
         xml:space="preserve"
         transform="matrix(0.63611346,0,0,0.63611346,764.07071,69.176393)"
         id="text7966-1"
         style="font-style:normal;font-weight:normal;font-size:17.3333px;line-height:1.25;font-family:sans-serif;white-space:pre;shape-inside:url(#rect7968-4-1);fill:#ffffff;fill-opacity:1;stroke:none"><tspan
           x="-177.66016"
           y="474.29221"
           id="tspan64182">NO2</tspan></text>
      <path
         style="fill:none;stroke:#ffffff;stroke-width:2.504;stroke-linecap:butt;stroke-linejoin:miter;stroke-miterlimit:4;stroke-dasharray:2.504, 2.504;stroke-dashoffset:0;stroke-opacity:1"
         d="m 742.55163,228.06792 c -2.4005,-2.71542 -9.88565,-8.00768 -15.00243,-11.74203"
         id="path1217"
         sodipodi:nodetypes="cc" />
      <path
         style="fill:none;stroke:#ffffff;stroke-width:2.504;stroke-linecap:butt;stroke-linejoin:miter;stroke-miterlimit:4;stroke-dasharray:2.504, 2.504;stroke-dashoffset:0;stroke-opacity:1"
         d="m 730.6188,293.74839 -9.24745,0.18056 -6.17504,7.52532 -20.02208,-0.68412 -10.1046,12.31414 -3.3682,-3.8767 -10.10462,0.68412 -8.60762,-11.40195 h -3.36821 l -4.52562,9.76921"
         id="path3582"
         sodipodi:nodetypes="cccccccccc" />
      <path
         style="fill:none;stroke:#ffffff;stroke-width:2.504;stroke-linecap:butt;stroke-linejoin:miter;stroke-miterlimit:4;stroke-dasharray:2.504, 2.504;stroke-dashoffset:0;stroke-opacity:1"
         d="m 684.01014,313.5729 8.09142,14.05168 -3.84342,26.87054 11.53029,14.29811 2.33681,2.32174 0.63897,0.0253"
         id="path3584"
         sodipodi:nodetypes="cccccc" />
      <path
         style="fill:none;stroke:#ffffff;stroke-width:2.504;stroke-linecap:butt;stroke-linejoin:miter;stroke-miterlimit:4;stroke-dasharray:2.504, 2.504;stroke-dashoffset:0;stroke-opacity:1"
         d="m 635.75107,351.82914 52.24785,0.46675"
         id="path3586"
         sodipodi:nodetypes="cc" />
      <text
         xml:space="preserve"
         transform="matrix(0.63611346,0,0,0.63611346,814.8677,32.513064)"
         id="text7966"
         style="font-style:normal;font-weight:normal;font-size:17.3333px;line-height:1.25;font-family:sans-serif;white-space:pre;shape-inside:url(#rect7968-4);fill:#ffffff;fill-opacity:1;stroke:none"><tspan
           x="-177.66016"
           y="474.29221"
           id="tspan64184">NO1</tspan></text>
      <text
         xml:space="preserve"
         transform="matrix(0.63611346,0,0,0.63611346,769.25302,33.07892)"
         id="text7966-0"
         style="font-style:normal;font-weight:normal;font-size:17.3333px;line-height:1.25;font-family:sans-serif;white-space:pre;shape-inside:url(#rect7968-4-8);fill:#ffffff;fill-opacity:1;stroke:none"><tspan
           x="-177.66016"
           y="474.29221"
           id="tspan64186">NO5</tspan></text>
      <text
         xml:space="preserve"
         transform="matrix(0.63611346,0,0,0.63611346,855.02919,-113.81278)"
         id="text7966-4"
         style="font-style:normal;font-weight:normal;font-size:17.3333px;line-height:1.25;font-family:sans-serif;white-space:pre;shape-inside:url(#rect7968-4-9);fill:#ffffff;fill-opacity:1;stroke:none"><tspan
           x="-177.66016"
           y="474.29221"
           id="tspan64188">NO4</tspan></text>
      <path
         style="fill:none;stroke:#ffffff;stroke-width:2.504;stroke-linecap:butt;stroke-linejoin:miter;stroke-miterlimit:4;stroke-dasharray:2.504, 2.504;stroke-dashoffset:0;stroke-opacity:1"
         d="m 733.89254,279.60363 1.97064,0.30006 5.65722,1.21071 10.27546,16.22441 22.44373,4.86728 14.87231,18.11721 -2.43356,11.08669 7.84169,5.67851 7.30111,-2.16326 1.62231,-8.92342"
         id="path42355"
         sodipodi:nodetypes="cccccccccc" />
      <path
         style="fill:none;stroke:#ffffff;stroke-width:2.504;stroke-linecap:butt;stroke-linejoin:miter;stroke-miterlimit:4;stroke-dasharray:2.504, 2.504;stroke-dashoffset:0;stroke-opacity:1"
         d="m 719.82076,419.96431 6.77864,-1.01677 3.72834,11.18477 12.87948,5.76187 18.3022,0.33888 0.33904,-4.40609 18.64126,-1.01684 4.74494,8.8123 -6.4396,4.74503 0.67781,8.47333 9.05385,4.73383"
         id="path42357"
         sodipodi:nodetypes="ccccccccccc" />
      <path
         style="fill:none;stroke:#ffffff;stroke-width:2.504;stroke-linecap:butt;stroke-linejoin:miter;stroke-miterlimit:4;stroke-dasharray:2.504, 2.504;stroke-dashoffset:0;stroke-opacity:1"
         d="m 763.95264,198.173 16.81879,10.24311 32.87806,26.30248 5.56414,-7.08144 17.64294,12.99047"
         id="path42359"
         sodipodi:nodetypes="ccccc" />
      <text
         xml:space="preserve"
         transform="matrix(0.63611346,0,0,0.63611346,855.91648,152.27206)"
         id="text7966-8-3-7"
         style="font-style:normal;font-weight:normal;font-size:17.3333px;line-height:1.25;font-family:sans-serif;white-space:pre;shape-inside:url(#rect7968-4-3-1-9);fill:#ffffff;fill-opacity:1;stroke:none"><tspan
           x="-177.66016"
           y="474.29221"
           id="tspan64190">SE4</tspan></text>
      <text
         xml:space="preserve"
         transform="matrix(0.63611346,0,0,0.63611346,865.9237,70.069895)"
         id="text7966-8-3"
         style="font-style:normal;font-weight:normal;font-size:17.3333px;line-height:1.25;font-family:sans-serif;white-space:pre;shape-inside:url(#rect7968-4-3-1-3);fill:#ffffff;fill-opacity:1;stroke:none"><tspan
           x="-177.66016"
           y="474.29221"
           id="tspan64192">SE3</tspan></text>
      <text
         xml:space="preserve"
         transform="matrix(0.63611346,0,0,0.63611346,875.57351,-42.51133)"
         id="text7966-8-3-4"
         style="font-style:normal;font-weight:normal;font-size:17.3333px;line-height:1.25;font-family:sans-serif;white-space:pre;shape-inside:url(#rect7968-4-3-1-7);fill:#ffffff;fill-opacity:1;stroke:none"><tspan
           x="-177.66016"
           y="474.29221"
           id="tspan64194">SE2</tspan></text>
      <text
         xml:space="preserve"
         transform="matrix(0.63611346,0,0,0.63611346,920.9126,-128.50431)"
         id="text7966-8-3-0"
         style="font-style:normal;font-weight:normal;font-size:17.3333px;line-height:1.25;font-family:sans-serif;white-space:pre;shape-inside:url(#rect7968-4-3-1-8);fill:#ffffff;fill-opacity:1;stroke:none"><tspan
           x="-177.66016"
           y="474.29221"
           id="tspan64196">SE1</tspan></text>
    </g>
  </g>
</svg>
